<svg width="256" height="256" version="1.1" xmlns="http://www.w3.org/2000/svg" desc="Created with imagetracer.js version 1.2.6" ><path fill="rgb(244,248,254)" stroke="rgb(244,248,254)" stroke-width="1" opacity="0.996078431372549" d="M 86.5 54 Q 93.4 53.1 95 57.5 L 96 64.5 L 70.5 91 L 63.5 93 L 46 76.5 Q 44.5 67.5 50.5 66 L 57.5 67 L 65.5 74 L 86.5 54 Z " /><path fill="rgb(244,248,254)" stroke="rgb(244,248,254)" stroke-width="1" opacity="0.996078431372549" d="M 114.5 66 L 204.5 66 L 210 70.5 Q 211.5 79.5 205.5 81 L 113.5 81 L 109 76.5 Q 107.5 68.5 112.5 67 L 114.5 66 Z " /><path fill="rgb(244,248,254)" stroke="rgb(244,248,254)" stroke-width="1" opacity="0.996078431372549" d="M 85.5 109 Q 94.5 107.5 96 113.5 L 95 120.5 L 68.5 147 L 60.5 146 L 47 132.5 L 46 125.5 L 49.5 121 L 54.5 120 L 65.5 129 L 85.5 109 Z " /><path fill="rgb(244,248,254)" stroke="rgb(244,248,254)" stroke-width="1" opacity="0.996078431372549" d="M 112.5 121 L 205.5 121 L 209 123.5 L 210 130.5 L 207.5 134 L 205.5 135 L 112.5 135 Q 107.9 133.1 109 125.5 L 112.5 121 Z " /><path fill="rgb(244,248,254)" stroke="rgb(244,248,254)" stroke-width="1" opacity="0.996078431372549" d="M 86.5 164 Q 93.4 163.1 95 167.5 L 96 174.5 L 68.5 202 L 64.5 203 L 61.5 202 L 46 186.5 Q 44.5 177.5 50.5 176 L 57.5 177 L 65.5 184 L 86.5 164 Z " /><path fill="rgb(244,248,254)" stroke="rgb(244,248,254)" stroke-width="1" opacity="0.996078431372549" d="M 113.5 176 L 204.5 176 L 210 180.5 Q 211.5 188.5 206.5 190 L 204.5 191 L 114.5 191 L 109 186.5 Q 107.5 177.5 113.5 176 Z " /><path fill="rgb(47,128,237)" stroke="rgb(47,128,237)" stroke-width="1" opacity="0.9882352941176471" d="M 112.5 0 L 127 0.5 L 112.5 1 L 96.5 4 L 76.5 11 Q 52.2 22.2 35 40.5 Q 13.6 62.6 4 96.5 L 1 112.5 L 1 143.5 Q 9.4 192.6 39.5 220 Q 55.2 235.3 76.5 245 L 96.5 252 L 112.5 255 L 127 255.5 L 112.5 256 L 92.5 252 L 71.5 244 Q 45.6 230.9 28 209.5 Q 12 190.5 4 163.5 L 0 143.5 L 0 112.5 L 4 92.5 L 13 69.5 Q 25.4 45.4 45.5 29 L 71.5 12 L 92.5 4 L 112.5 0 Z " /><path fill="rgb(47,128,237)" stroke="rgb(47,128,237)" stroke-width="1" opacity="0.9882352941176471" d="M 129.5 0 L 143.5 0 L 144.5 1 L 155.5 2 L 184.5 12 Q 210.5 25 228 46.5 Q 244 65.5 252 92.5 L 256 112.5 L 256 143.5 L 252 163.5 L 243 186.5 Q 230 211 209.5 228 Q 193.7 241.2 172.5 249 L 150.5 255 L 129.5 256 L 129.5 255 L 149.5 254 L 159.5 252 L 179.5 245 Q 203.8 233.8 221 215.5 Q 242.4 193.4 252 159.5 L 255 143.5 L 255 112.5 Q 246.5 62.5 215.5 35 Q 200.1 20.4 179.5 11 L 159.5 4 L 143.5 1 L 129.5 1 L 129.5 0 Z " /><path fill="rgb(47,128,237)" stroke="rgb(47,128,237)" stroke-width="1" opacity="1" d="M 127.5 0 L 129.5 1 L 143.5 1 L 159.5 4 L 179.5 11 Q 203.8 22.2 221 40.5 Q 242.4 62.6 252 96.5 L 255 112.5 L 255 143.5 Q 246.5 193.5 215.5 221 Q 198.3 237.3 174.5 247 L 149.5 254 L 129.5 255 L 127.5 256 L 126.5 255 L 112.5 255 L 96.5 252 L 76.5 245 Q 52.8 234.2 36 216.5 Q 19 199 9 174.5 L 4 159.5 L 1 143.5 L 1 112.5 Q 9.4 63.4 39.5 36 Q 55.2 20.7 76.5 11 L 96.5 4 L 112.5 1 L 126.5 1 L 127.5 0 Z M 87 54 L 66 74 L 58 67 L 51 66 Q 45 68 46 77 L 64 93 L 71 91 L 96 65 L 95 58 Q 93 53 87 54 Z M 115 66 L 113 67 Q 108 69 109 77 L 114 81 L 206 81 Q 212 80 210 71 L 205 66 L 115 66 Z M 86 109 L 66 129 L 55 120 L 50 121 L 46 126 L 47 133 L 61 146 L 69 147 L 95 121 L 96 114 Q 95 107 86 109 Z M 113 121 L 109 126 Q 108 133 113 135 L 206 135 L 208 134 L 210 131 L 209 124 L 206 121 L 113 121 Z M 87 164 L 66 184 L 58 177 L 51 176 Q 45 177 46 187 L 62 202 L 65 203 L 69 202 L 96 175 L 95 168 Q 93 163 87 164 Z M 114 176 Q 107 177 109 187 L 115 191 L 205 191 L 207 190 Q 212 188 210 181 L 205 176 L 114 176 Z " /><path fill="rgb(0,0,0)" stroke="rgb(0,0,0)" stroke-width="1" opacity="0" d="M 0 0 L 112 0.5 L 92.5 4 L 69.5 13 Q 45 26 28 46.5 Q 16.6 60.6 9 78.5 Q 2.4 92.9 0.5 112 L 0 0 Z " /><path fill="rgb(0,0,0)" stroke="rgb(0,0,0)" stroke-width="1" opacity="0" d="M 144.5 0 L 256 0 L 256 111.5 L 255 111.5 L 255 105.5 L 252 92.5 L 243 69.5 Q 230.2 44.8 209.5 28 L 184.5 12 L 163.5 4 L 150.5 1 L 144.5 1 L 144.5 0 Z " /><path fill="rgb(0,0,0)" stroke="rgb(0,0,0)" stroke-width="1" opacity="0" d="M 0.5 144 L 4 163.5 L 13 186.5 Q 25.4 210.6 45.5 227 L 71.5 244 L 92.5 252 L 112 255.5 L 0 256 L 0.5 144 Z " /><path fill="rgb(0,0,0)" stroke="rgb(0,0,0)" stroke-width="1" opacity="0" d="M 255.5 144 L 256 256 L 144 255.5 L 163.5 252 L 186.5 243 Q 210.6 230.6 227 210.5 L 244 184.5 L 252 163.5 L 255.5 144 Z " /></svg>